<svg xmlns="http://www.w3.org/2000/svg" viewBox="0 0 784 839" role="img" aria-label="Tsunami">
<path d="M0 0 C0.9365 0.2907 1.873 0.5814 2.8379 0.8809 C26.9175 8.4823 50.3093 19.0818 72 32 C72.7849 32.4673 73.5698 32.9346 74.3784 33.416 C91.6525 43.8093 107.8901 55.6567 123 69 C123.8443 69.7451 124.6887 70.4902 125.5586 71.2578 C128.0559 73.4874 130.5296 75.7407 133 78 C134.0871 78.9819 135.1744 79.9637 136.2617 80.9453 C141.5413 85.7351 146.6977 90.4851 151.2773 95.9648 C153.3597 98.4249 155.5549 100.765 157.75 103.125 C184.9541 133.0413 206.3941 169.4229 221 207 C221.2889 207.719 221.5778 208.4379 221.8755 209.1787 C236.3752 245.3029 244.0415 285.107 245 324 C245.0219 324.8735 245.0438 325.747 245.0664 326.647 C246.2594 383.86 234.5589 440.7001 209 492 C208.5516 492.9078 208.1031 493.8156 207.6411 494.751 C196.3081 517.5313 182.3597 538.54 166.3726 558.3027 C165.0905 559.888 163.8202 561.4827 162.5508 563.0781 C155.5548 571.664 147.7417 579.4705 139.9375 587.3125 C139.6602 587.5924 139.6602 587.5924 138.2568 589.0092 C131.1718 596.146 123.9047 602.7615 116 609 C114.7563 610.024 113.5151 611.0509 112.2773 612.082 C102.9542 619.7441 93.1779 626.5244 83 633 C82.3769 633.3978 81.7538 633.7957 81.1118 634.2056 C69.4963 641.5573 57.2592 647.803 45 654 C44.652 654.1767 44.652 654.1767 42.8911 655.0708 C-2.9107 678.0983 -55.4701 688.2154 -106.4375 688.25 C-106.8869 688.2503 -106.8869 688.2503 -109.1614 688.252 C-192.3745 688.1536 -277.8973 658.1857 -339.5234 601.2656 C-341.5434 599.4177 -343.5927 597.6283 -345.668 595.8438 C-357.74 585.304 -369.2415 573.7196 -379 561 C-379.9078 559.889 -380.8196 558.7811 -381.7344 557.6758 C-428.5935 500.7952 -458.6877 425.3579 -459.2383 351.2734 C-459.2481 350.1795 -459.2579 349.0855 -459.268 347.9584 C-459.4404 323.6823 -459.2962 299.9465 -455 276 C-454.7857 274.7992 -454.5714 273.5985 -454.3506 272.3613 C-444.1853 217.4065 -421.4569 165.0725 -387 121 C-386.3039 120.1015 -385.6078 119.203 -384.8906 118.2773 C-382.9594 115.8234 -380.9873 113.4088 -379 111 C-378.2369 110.0512 -377.4737 109.1025 -376.6875 108.125 C-369.9123 99.8578 -362.4714 92.2565 -354.9375 84.6875 C-354.431 84.1758 -353.9245 83.6641 -353.4026 83.1369 C-346.6054 76.285 -339.5668 70.0101 -332 64 C-330.8608 63.0475 -329.7248 62.0911 -328.5938 61.1289 C-311.4262 46.7698 -291.9582 34.0997 -272 24 C-271.011 23.4966 -270.0219 22.9932 -269.0029 22.4746 C-185.608 -19.635 -89.242 -27.9143 0 0 Z M-165 11 C-166.1281 11.1987 -167.2562 11.3974 -168.4185 11.6021 C-246.9601 25.758 -321.0147 67.3047 -369.7046 131.3105 C-370.9585 132.9459 -372.2342 134.5611 -373.5195 136.1719 C-384.5899 150.1223 -393.6729 165.2845 -402 181 C-402.3516 181.6632 -402.7032 182.3264 -403.0654 183.0098 C-427.5176 229.5742 -439.2204 280.6986 -439.25 333.125 C-439.2507 334.1982 -439.2513 335.2715 -439.252 336.3773 C-439.236 352.4633 -438.7416 368.1147 -436 384 C-435.9142 384.523 -435.9142 384.523 -435.48 387.1694 C-425.9088 444.622 -401.7377 496.9671 -365 542 C-364.5632 542.5412 -364.1263 543.0825 -363.6763 543.6401 C-352.0877 557.9204 -339.0248 571.8095 -324.4688 583.0859 C-321.7243 585.2137 -319.1258 587.4777 -316.5 589.75 C-302.4803 601.421 -286.7653 610.9017 -271 620 C-270.3887 620.3587 -269.7773 620.7174 -269.1475 621.0869 C-225.0821 646.7811 -169.7889 662.9688 -118.9023 663.2031 C-117.8781 663.2101 -116.8539 663.2172 -115.7986 663.2244 C-112.5115 663.2418 -109.2246 663.2482 -105.9375 663.25 C-105.376 663.2503 -105.376 663.2503 -102.5342 663.252 C-86.1386 663.2364 -70.1893 662.8016 -54 660 C-52.9889 659.839 -51.9778 659.6781 -50.936 659.5122 C-23.6389 655.1304 2.6954 647.0864 28 636 C28.8495 635.6291 29.699 635.2581 30.5742 634.876 C72.5843 616.292 112.1659 587.0491 142 552 C142.7992 551.0899 143.5984 550.1798 144.4219 549.2422 C185.8209 501.7677 212.3073 440.4018 220 378 C220.103 377.1926 220.2059 376.3851 220.312 375.5532 C230.3466 293.2951 208.0563 207.1417 158 141 C157.7797 140.7083 157.7797 140.7083 156.665 139.2324 C151.1681 131.9994 145.4417 125.1002 139.2578 118.4414 C137.3266 116.3531 135.4668 114.2291 133.625 112.0625 C126.4152 103.7789 118.4507 96.0072 110 89 C109.4646 88.5508 108.9291 88.1015 108.3774 87.6387 C51.2157 39.7823 -24.0005 8.1364 -99.3164 7.7969 C-100.3627 7.7898 -101.4091 7.7828 -102.4871 7.7755 C-146.0419 7.5483 -146.0419 7.5483 -165 11 Z " fill="#3FBC6C" transform="translate(510,46)"/>
<path d="M0 0 C0.4164 0.0003 0.4164 0.0003 2.5234 0.0016 C59.2781 0.1714 109.2945 27.1002 148.9375 66.4375 C154.5725 72.109 159.7078 78.0677 164.625 84.375 C166.082 86.1886 167.5403 88.0011 169 89.8125 C170.214 91.3288 171.4229 92.8492 172.625 94.375 C173.1948 95.0879 173.7645 95.8007 174.3516 96.5352 C175.625 98.375 175.625 98.375 175.625 100.375 C171.5794 98.7057 168.6015 95.8689 165.375 93 C148.5062 78.3098 129.8967 65.6863 110.5498 54.4902 C109.24 53.7313 107.9335 52.9668 106.6299 52.1973 C62.9007 26.445 16.5389 11.8767 -33.332 24.7344 C-61.2116 32.1019 -85.4025 42.4265 -108.449 59.9521 C-112.3745 62.926 -116.349 65.7184 -120.5 68.375 C-132.2299 76.0992 -141.3616 84.8135 -149.375 96.375 C-150.9105 98.4006 -152.4522 100.4214 -154 102.4375 C-161.8694 112.7038 -167.9868 123.9004 -173.875 135.375 C-174.2511 136.1075 -174.6271 136.8401 -175.0146 137.5948 C-189.696 166.3133 -196.7661 196.5018 -201.375 228.375 C-201.5402 229.4934 -201.7053 230.6118 -201.8755 231.7642 C-204.3675 249.4399 -204.6357 266.9902 -204.625 284.8125 C-204.6247 285.3702 -204.6247 285.3702 -204.6232 288.1927 C-204.6167 291.3981 -204.6002 294.6033 -204.5781 297.8086 C-204.5737 298.7709 -204.5693 299.7333 -204.5648 300.7248 C-204.5127 305.708 -204.2182 310.4616 -203.375 315.375 C-203.045 315.375 -202.715 315.375 -202.375 315.375 C-202.255 314.8174 -202.1349 314.2598 -202.0112 313.6853 C-197.1015 291.2036 -189.6414 270.9624 -174.375 253.375 C-173.8864 252.7434 -173.3979 252.1117 -172.8945 251.4609 C-163.534 239.557 -150.1345 235.2187 -135.8909 232.1375 C-133.8109 231.6872 -131.7345 231.2227 -129.6582 230.7559 C-108.9338 226.1431 -92.0698 225.9994 -73.375 237.375 C-70.729 239.4826 -68.2978 241.7042 -65.8555 244.043 C-49.5959 259.3295 -34.1572 263.2126 -12.5669 262.5542 C30.3613 260.1441 72.8723 241.8374 111.625 224.375 C112.285 224.705 112.945 225.035 113.625 225.375 C111.3011 228.0501 108.9649 230.714 106.625 233.375 C105.988 234.1002 105.3509 234.8254 104.6946 235.5725 C98.955 242.0298 92.9764 248.2098 86.8691 254.3162 C85.2536 255.9339 83.6462 257.5595 82.0391 259.1855 C75.5601 265.7001 68.868 271.7023 61.625 277.375 C60.8956 277.9584 60.1661 278.5418 59.4146 279.1428 C49.9169 286.7146 40.2381 293.4719 29.625 299.375 C28.9816 299.7404 28.3382 300.1059 27.6753 300.4824 C19.0811 305.3452 10.3736 309.3758 1.1875 313 C-12.5996 318.4796 -22.4599 325.1419 -30.2377 338.0757 C-36.9699 349.0035 -46.0063 357.7279 -55.0972 366.6941 C-57.8855 369.4479 -60.6487 372.2251 -63.4102 375.0059 C-65.1991 376.7879 -66.9894 378.5685 -68.7812 380.3477 C-69.5951 381.1665 -70.4089 381.9853 -71.2474 382.8289 C-81.3483 392.7267 -92.6879 398.4504 -106.5 401.125 C-106.8285 401.1889 -106.8285 401.1889 -108.4907 401.5125 C-113.195 402.3474 -117.6207 402.4809 -122.375 402.375 C-118.8353 400.4233 -115.165 399.3202 -111.3125 398.125 C-82.7442 388.8444 -71.6774 366.3045 -58.375 341.375 C-57.807 340.3207 -57.239 339.2664 -56.6538 338.1802 C-51.3935 328.114 -50.0002 319.8595 -50.0625 308.5625 C-50.0653 308.0303 -50.0653 308.0303 -50.0796 305.3369 C-50.3231 289.6154 -54.8335 276.1564 -65.8984 264.6289 C-79.3448 252.3915 -96.7927 248.9018 -114.5049 249.396 C-130.2643 250.2175 -148.4787 255.3803 -160.375 266.375 C-162.2675 268.6461 -163.983 271.0234 -165.6875 273.4375 C-166.6572 274.7945 -167.6272 276.1513 -168.5977 277.5078 C-169.0696 278.1707 -169.5416 278.8336 -170.0278 279.5166 C-171.1893 281.1188 -172.4008 282.6844 -173.6211 284.2422 C-184.535 298.2409 -190.6134 316.6606 -191.375 334.375 C-191.395 334.7972 -191.395 334.7972 -191.4961 336.9336 C-191.6922 345.0669 -191.4449 354.1416 -187.375 361.375 C-186.385 361.045 -185.395 360.715 -184.375 360.375 C-184.1944 359.6921 -184.0137 359.0092 -183.8276 358.3057 C-165.489 289.1446 -165.489 289.1446 -143.6094 274.5273 C-128.7925 266.1049 -111.5073 263.7656 -94.8125 267.5 C-82.9578 271.0547 -73.9379 277.1487 -67.6719 287.7773 C-60.9819 301.1774 -63.2201 315.9081 -67.5 329.6875 C-70.3223 337.9801 -74.2485 345.6686 -78.375 353.375 C-78.5557 353.719 -78.5557 353.719 -79.4702 355.46 C-86.3736 368.5585 -94.1784 382.4752 -108.6211 388.2773 C-117.9966 390.8343 -127.9554 388.9827 -136.375 384.375 C-143.9263 379.2365 -147.6532 373.3325 -149.625 364.5 C-151.7521 350.6158 -151.8764 336.9426 -143.5625 325.0625 C-137.7759 317.9884 -130.9141 312.1844 -121.5664 311.0273 C-114.3273 310.8014 -110.0796 312.082 -104.5 316.8125 C-101.5685 320.6386 -101.6888 324.6854 -101.8789 329.3516 C-102.5187 333.251 -103.9757 335.9277 -106.0547 339.2422 C-110.9575 347.1622 -110.4668 353.4811 -108.375 362.375 C-102.4364 361.5017 -99.2144 358.9039 -95.375 354.375 C-88.6117 342.9515 -84.8982 331.6996 -88.0938 318.3789 C-91.6603 308.9303 -97.5385 303.8843 -106.375 299.375 C-114.4322 296.0305 -123.9171 296.2333 -132.125 299 C-143.071 303.5595 -151.7554 310.6891 -157.1875 321.375 C-166.2459 343.5619 -165.0184 373.6541 -156.4534 395.7529 C-152.7714 403.6529 -146.5841 406.6908 -138.625 409.6875 C-120.4747 415.9764 -99.2706 412.3544 -82.2041 404.2935 C-68.6053 397.465 -58.6599 387.8395 -49.3359 375.8516 C-25.3582 345.569 14.6371 331.4867 52.0547 326.7578 C80.7057 323.9195 111.9389 327.095 135.4524 345.0068 C146.464 353.3878 158.4559 359.835 170.625 366.375 C171.6592 366.9346 172.6933 367.4942 173.7588 368.0708 C209.161 387.1722 209.161 387.1722 228.625 388.375 C229.0414 388.4014 229.0414 388.4014 231.1484 388.5352 C254.6526 389.2757 275.8474 380.5107 295.7261 368.8066 C311.5079 359.5927 328.8212 357.4958 346.625 354.375 C344.7388 354.0479 342.8519 353.7244 340.9648 353.4023 C339.9142 353.2218 338.8635 353.0412 337.781 352.8552 C328.7323 351.4784 321.207 352.6071 312.4375 354.875 C296.8934 358.772 286.1349 358.5353 271.1511 352.5801 C264.5113 349.9553 257.9872 348.1351 251 346.6875 C238.7916 344.1003 229.1536 340.6499 219.625 332.375 C218.9598 331.8413 218.2947 331.3077 217.6094 330.7578 C213.6927 327.535 210.4811 324.0871 207.3125 320.125 C196.4631 306.5724 183.305 295.5792 168.625 286.375 C168.625 285.715 168.625 285.055 168.625 284.375 C171.1201 283.073 173.6204 281.7834 176.125 280.5 C176.8211 280.1352 177.5172 279.7704 178.2344 279.3945 C186.0729 275.4027 193.1708 274.001 201.9375 273.9375 C202.6961 273.9046 203.4547 273.8718 204.2363 273.8379 C219.905 273.6999 236.0624 280.6542 250.8059 285.3368 C300.1555 300.9769 340.2851 310.2292 389.625 290.375 C389.625 287.735 389.625 285.095 389.625 282.375 C381.375 282.045 373.125 281.715 364.625 281.375 C367.8569 278.1431 370.3644 276.1017 374.1602 273.7383 C375.2165 273.0789 376.2729 272.4196 377.3613 271.7402 C378.459 271.0628 379.5566 270.3854 380.6875 269.6875 C381.789 268.9985 382.8905 268.3095 384.0254 267.5996 C392.2153 262.5116 392.2153 262.5116 395.625 261.375 C396.4485 295.7953 391.1626 328.6138 380.625 361.375 C380.5087 361.7397 380.5087 361.7397 379.9199 363.5854 C369.9447 394.1438 351.3512 423.0121 330.625 447.375 C329.8168 448.3676 329.0085 449.3602 328.1758 450.3828 C321.725 458.2249 314.7202 465.4932 307.5625 472.6875 C306.6528 473.6064 305.7431 474.5252 304.8059 475.4719 C298.7176 481.5329 292.3311 487.0138 285.625 492.375 C284.5125 493.311 283.4047 494.2525 282.3047 495.2031 C218.5019 550.2974 145.299 578.6246 60.6528 572.9126 C33.1256 570.6306 6.1544 564.5255 -19.9375 555.5625 C-20.7832 555.2726 -21.6289 554.9827 -22.5002 554.6841 C-28.2487 552.6275 -28.2487 552.6275 -29.375 550.375 C-19.9557 533.6058 -7.771 519.2284 10.625 512.375 C37.6973 506.0626 73.2727 522.692 98.7161 531.2688 C126.936 540.5785 158.7462 534.4397 185.625 523.375 C184.3553 523.5078 183.0855 523.6405 181.7773 523.7773 C141.7458 527.9118 105.847 527.1709 69.0974 509.2305 C57.2819 503.4667 45.9347 498.2774 32.625 497.375 C31.9921 497.3118 31.3591 497.2487 30.707 497.1836 C17.1054 496.3925 0.6937 502.2149 -9.5273 510.957 C-11.5649 512.7934 -13.5405 514.6864 -15.5039 516.6016 C-38.5138 538.8288 -38.5138 538.8288 -51.5625 540.0625 C-58.1259 539.8207 -63.9103 535.6859 -69.375 532.375 C-67.8185 528.2939 -64.9064 525.9516 -61.625 523.25 C-61.0472 522.7699 -60.4694 522.2898 -59.874 521.7952 C-29.7138 497.0451 3.0442 483.0298 42.625 485.375 C58.905 487.0319 73.9069 493.0118 88.8 499.4673 C98.5638 503.6907 108.2604 506.9631 118.625 509.375 C119.6485 509.6212 120.672 509.8674 121.7266 510.1211 C161.3664 517.8674 195.4554 501.3745 228.7285 482.0557 C231.5475 480.4199 234.3749 478.7994 237.2031 477.1797 C254.2471 467.3441 270.3784 456.3071 286.25 444.6875 C287.0379 444.1114 287.8257 443.5352 288.6375 442.9417 C289.3681 442.4002 290.0988 441.8587 290.8516 441.3008 C291.4866 440.8307 292.1216 440.3606 292.7759 439.8762 C294.8743 438.1726 296.7434 436.3131 298.625 434.375 C283.2423 442.2034 267.9096 450.063 252.9285 458.6426 C243.1829 464.2228 233.3163 469.5676 223.4175 474.8701 C220.8117 476.2744 218.219 477.6998 215.6289 479.1328 C195.4943 490.1728 173.819 498.5215 150.625 499.375 C149.809 499.415 148.993 499.4549 148.1523 499.4961 C126.2405 500.0579 105.6515 494.0891 85.3359 486.4961 C55.5543 475.373 23.3447 465.7164 -8.375 475.375 C-8.704 475.4717 -8.704 475.4717 -10.3687 475.9609 C-27.5365 481.1053 -42.3131 489.9298 -55.9141 501.543 C-64.8445 509.0984 -74.4872 513.6901 -86.375 513.375 C-89.8287 513.027 -93.0408 512.3307 -96.375 511.375 C-97.1639 511.1636 -97.9528 510.9522 -98.7656 510.7344 C-107.0636 508.0041 -113.0429 502.1332 -119.375 496.375 C-120.3757 495.4837 -121.377 494.593 -122.3789 493.7031 C-133.8932 483.3387 -144.7961 472.5724 -154.375 460.375 C-155.2915 459.2685 -156.2109 458.1645 -157.1328 457.0625 C-198.0889 407.7268 -224.2595 340.3624 -224.5781 275.9336 C-224.5851 274.976 -224.5922 274.0184 -224.5994 273.0318 C-224.6168 269.9586 -224.6232 266.8857 -224.625 263.8125 C-224.6257 262.7611 -224.6263 261.7097 -224.627 260.6264 C-224.6108 244.6828 -224.1668 229.1127 -221.375 213.375 C-221.2034 212.3924 -221.0318 211.4098 -220.855 210.3975 C-209.8466 149.3447 -181.7753 81.105 -129.375 44.375 C-118.7548 37.0748 -107.7808 30.3741 -96.375 24.375 C-95.6778 24.0067 -94.9806 23.6383 -94.2622 23.2588 C-75.0197 13.249 -53.7826 5.9817 -32.375 2.375 C-31.3927 2.2013 -30.4105 2.0276 -29.3984 1.8486 C-19.5732 0.2593 -9.9259 -0.0245 0 0 Z M187.625 287.375 C189.6833 289.4333 190.9278 290.032 193.5898 291.0742 C194.3846 291.3925 195.1794 291.7109 195.9983 292.0388 C196.4214 292.2077 196.4214 292.2077 198.5625 293.0625 C208.39 297.1109 216.7346 301.5781 224.5625 308.875 C242.8378 325.6203 272.2239 332.6473 296.625 332.375 C306.571 331.7881 316.2019 329.4602 325.8621 327.1401 C326.7519 326.9276 327.6418 326.7151 328.5586 326.4961 C329.3429 326.3046 330.1272 326.1131 330.9353 325.9158 C337.4474 324.6065 343.8793 324.2027 350.5 324.0586 C351.3099 324.0378 352.1199 324.017 352.9543 323.9956 C355.5112 323.9309 358.0681 323.8716 360.625 323.8125 C362.3711 323.7692 364.1172 323.7256 365.8633 323.6816 C370.1171 323.5753 374.371 323.4738 378.625 323.375 C370.6186 318.8669 360.3458 319.0147 351.375 319.0625 C350.3164 319.0638 349.2577 319.0651 348.167 319.0664 C339.3485 319.1681 330.6379 319.9612 321.875 320.875 C300.8432 323.0462 279.027 325.0637 258.625 318.375 C257.9637 318.1607 257.3024 317.9464 256.6211 317.7256 C245.2806 313.914 235.8731 307.9819 226.75 300.3125 C214.9651 290.6755 202.6892 286.9231 187.625 287.375 Z M20.625 369.375 C19.5809 370.5747 18.5416 371.7785 17.5056 372.9851 C13.5297 377.5409 9.3398 381.8568 5.0859 386.1523 C4.2832 386.9631 3.4805 387.7739 2.6535 388.6093 C0.9624 390.3141 -0.7303 392.0175 -2.4243 393.7195 C-4.1352 395.4419 -5.8416 397.1688 -7.5435 398.9001 C-31.5649 423.3376 -56.3482 435.8638 -90.9575 436.6062 C-101.501 436.6951 -111.9144 435.598 -122.375 434.375 C-109.8265 445.5552 -86.7517 446.2787 -70.9355 445.5659 C-52.8455 444.2171 -38.3505 436.7289 -24.375 425.375 C-23.4301 424.6338 -22.4852 423.8926 -21.5117 423.1289 C-13.8873 416.9483 -6.9353 410.1189 0 403.1875 C0.4744 402.7141 0.9487 402.2408 1.4374 401.7531 C5.9037 397.2857 10.3155 392.8082 14.4336 388.0156 C28.5872 371.5567 48.779 361.814 70.2852 360.1719 C94.1899 359.7054 111.7201 371.1379 128.3906 387.0078 C157.0779 414.0688 194.7513 431.8069 234.5625 431.75 C235.2393 431.7491 235.9161 431.7482 236.6134 431.7473 C280.2349 431.5621 319.059 410.0664 351.625 382.375 C348.2173 381.2391 347.4306 381.514 344.125 382.5977 C343.6841 382.7416 343.6841 382.7416 341.4531 383.47 C340.5198 383.7893 339.5866 384.1085 338.625 384.4375 C338.148 384.6 338.148 384.6 335.7344 385.4226 C325.3876 389.0385 317.1856 393.7889 308.5952 400.553 C286.0934 418.18 259.1335 425.1748 230.7969 421.8789 C195.4556 417.052 167.8159 400.1694 140 378.8125 C139.2945 378.2719 138.589 377.7313 137.8621 377.1743 C132.3372 372.9352 132.3372 372.9352 129.6802 370.8452 C99.1305 346.829 49.9503 338.974 20.625 369.375 Z M-3.6213 434.0188 C-8.1073 439.2451 -12.1512 444.7276 -16 450.4375 C-16.4262 451.0688 -16.8524 451.7001 -17.2915 452.3506 C-19.21 455.2801 -20.8678 457.8681 -21.375 461.375 C-18.1304 459.9042 -15.5695 458.0608 -12.8125 455.8125 C-12.3736 455.4554 -12.3736 455.4554 -10.1523 453.6484 C-9.2358 452.8982 -8.3193 452.148 -7.375 451.375 C-6.4688 450.6454 -5.5626 449.9158 -4.6289 449.1641 C-0.1242 445.5219 4.2585 441.8213 8.5 437.875 C27.9452 420.2948 52.4918 409.6092 78.957 410.125 C112.2293 412.3928 141.4854 427.7045 171.1324 441.7789 C177.2748 444.6917 183.4463 447.54 189.625 450.375 C190.285 450.045 190.945 449.715 191.625 449.375 C179.2507 439.9043 166.753 430.7751 153.625 422.375 C152.8801 421.8955 152.1352 421.4159 151.3677 420.9219 C99.7384 387.872 39.7251 385.0129 -3.6213 434.0188 Z M25.625 449.375 C28.9422 450.6189 31.6792 450.1429 35.1177 449.6504 C62.8408 446.6054 86.5316 452.1779 111.875 462.5 C139.8734 473.8837 167.2555 474.5866 196.625 468.375 C196.625 468.045 196.625 467.715 196.625 467.375 C195.8157 467.3301 195.0064 467.2852 194.1726 467.239 C161.3862 465.3717 161.3862 465.3717 147.625 462.375 C146.8722 462.2111 146.1194 462.0473 145.3438 461.8784 C131.2042 458.6293 117.9839 453.0349 104.7029 447.3132 C77.7604 435.776 52.0339 436.6421 25.625 449.375 Z " fill="#344892" transform="translate(319.375,119.625)"/>
<path d="M0 0 C0.3323 0.0009 0.3323 0.0009 2.0141 0.0055 C28.8888 0.1281 55.0805 3.3393 79.375 15.3125 C80.3689 15.7959 81.3627 16.2793 82.3867 16.7773 C92.7022 22.0896 101.5828 29.3578 110.0742 37.1992 C112.1529 39.1085 114.2792 40.9323 116.4375 42.75 C121.1774 46.9045 125.2817 51.5285 129.375 56.3125 C129.84 56.8492 130.3051 57.386 130.7842 57.939 C147.3085 77.1235 172.1792 107.0272 175.375 133.3125 C171.8038 131.8706 170.3289 130.2015 168.2734 126.9805 C167.7058 126.1056 167.1383 125.2307 166.5535 124.3293 C166.2559 123.8625 166.2559 123.8625 164.75 121.5 C157.3523 110.157 149.6456 99.539 140.4414 89.5664 C138.6076 87.5662 136.8646 85.5191 135.125 83.4375 C122.2698 68.7879 106.1695 57.0236 89.375 47.3125 C89.0494 47.118 89.0494 47.118 87.4014 46.1338 C52.3651 25.2295 14.082 18.384 -25.625 28.3125 C-51.9727 35.5575 -78.7362 47.9582 -95.625 70.3125 C-97.6549 74.0192 -98.2384 77.1063 -97.625 81.3125 C-93.6104 87.5575 -86.4598 88.5398 -79.625 90.3125 C-74.8123 91.2561 -69.9767 91.9759 -65.125 92.6875 C-35.578 97.265 -4.89 106.0275 13.8567 131.0837 C24.0566 145.4564 29.7377 161.8195 31.375 179.3125 C28.2863 175.6047 25.6684 171.7146 23.125 167.625 C7.5379 143.1177 -15.3628 122.7181 -44.2031 115.75 C-65.9912 111.8141 -84.5366 115.4327 -103.625 126.3125 C-104.6343 126.881 -105.6437 127.4495 -106.6836 128.0352 C-115.7893 133.4986 -123.177 140.821 -130.625 148.3125 C-131.2382 148.9057 -131.8514 149.4989 -132.4832 150.1101 C-149.9979 167.2048 -161.4879 189.3183 -170.6228 211.8074 C-172.4307 216.2153 -172.4307 216.2153 -174.625 217.3125 C-174.8789 209.9546 -174.3441 203.326 -172.6133 196.1758 C-172.3926 195.2378 -172.172 194.2998 -171.9447 193.3333 C-169.1589 181.8746 -165.489 170.6971 -161.8125 159.5 C-161.1313 157.4033 -160.4509 155.3063 -159.7715 153.209 C-158.4165 149.0293 -157.0562 144.8514 -155.6926 140.6746 C-153.1991 133.0227 -150.7554 125.355 -148.3222 117.6838 C-137.443 83.5148 -119.894 56.5758 -91.625 34.3125 C-90.6621 33.521 -89.6991 32.7295 -88.707 31.9141 C-72.8693 19.1877 -55.3925 10.4847 -36 4.5625 C-35.356 4.3635 -34.7119 4.1645 -34.0483 3.9595 C-22.8644 0.7176 -11.5931 -0.051 0 0 Z " fill="#344892" transform="translate(301.625,152.6875)"/>
<path d="M0 0 C12.2061 11.5486 21.8164 26.4524 28 42 C28.3835 42.9605 28.767 43.921 29.1621 44.9106 C30.4393 48.1418 31.6938 51.3807 32.9375 54.625 C33.1387 55.1471 33.1387 55.1471 34.157 57.7893 C34.5267 58.7792 34.8964 59.7691 35.2773 60.7891 C35.6098 61.6729 35.9423 62.5567 36.2849 63.4673 C37.0281 66.0997 37.1347 68.2793 37 71 C32.9492 67.5016 30.9284 63.4141 28.5 58.75 C13.8401 31.547 -7.5868 9.5912 -37.5461 0.4578 C-43.4457 -1.2468 -48.9877 -2.1407 -55.125 -2.125 C-56.1382 -2.1276 -57.1514 -2.1302 -58.1953 -2.1328 C-60.6364 -2.0172 -62.6711 -1.702 -65 -1 C-62.4852 4.5722 -57.9102 7.2358 -53.0625 10.625 C-45.1633 16.3003 -37.887 22.1235 -31 29 C-30.5965 29.3977 -30.5965 29.3977 -28.5547 31.4102 C-11.5824 49.1016 -6.187 72.1539 -6 96 C-6.1251 100.6837 -6.506 105.3414 -7 110 C-8.7526 107.371 -9.5065 105.7266 -10.375 102.7812 C-16.1078 84.0707 -23.9753 67.7197 -37 53 C-37.727 52.1724 -38.4541 51.3448 -39.2031 50.4922 C-59.4108 29.0122 -91.3659 16.2612 -120.5206 14.8806 C-123.3561 14.8066 -126.1911 14.7579 -129.0273 14.7188 C-131.1387 14.681 -133.25 14.6432 -135.3613 14.6055 C-138.6687 14.5516 -141.9761 14.4994 -145.2834 14.4478 C-148.4898 14.3962 -151.6961 14.339 -154.9023 14.2812 C-155.4012 14.2745 -155.4012 14.2745 -157.926 14.2401 C-158.8411 14.2234 -159.7562 14.2067 -160.699 14.1895 C-161.5076 14.1769 -162.3162 14.1644 -163.1493 14.1515 C-165 14 -165 14 -166 13 C-166.3332 10.1122 -166.3953 8.5627 -164.6992 6.1484 C-153.6856 -3.5607 -140.1273 -10.135 -127 -16.5 C-126.5825 -16.7046 -126.5825 -16.7046 -124.4697 -17.7397 C-114.9303 -22.2454 -105.489 -24.4006 -95 -25.1875 C-94.0045 -25.2657 -93.009 -25.344 -91.9834 -25.4246 C-58.4789 -27.8746 -26.1983 -22.5534 0 0 Z " fill="#344892" transform="translate(387,217)"/>
<path d="M0 0 C1.0451 0.0121 2.0902 0.0242 3.167 0.0366 C22.9239 0.5383 38.5899 7.2727 52.3125 21.5 C59.5771 29.4634 64.2473 37.5103 67.1875 47.875 C70.1912 58.0515 74.7382 67.2714 84.3125 72.5 C96.0407 78.6241 107.444 76.3297 120.0625 74.7734 C122.1337 74.5217 124.2074 74.2911 126.2812 74.0625 C140.5777 72.3806 153.8654 68.089 167.4022 63.4113 C187.626 56.4528 207.9085 50.3501 229.3125 48.5 C229.6425 49.16 229.9725 49.82 230.3125 50.5 C227.4206 51.6836 224.5287 52.8672 221.6367 54.0508 C220.7325 54.4209 219.8283 54.791 218.8967 55.1723 C213.9049 57.2152 208.9126 59.2571 203.9197 61.2974 C186.6037 68.3739 186.6037 68.3739 179.7567 71.2087 C177.904 71.9757 176.0503 72.7402 174.1965 73.5046 C172.0708 74.3817 169.9467 75.2629 167.825 76.1497 C153.867 81.8919 139.5531 85.1783 124.8484 88.3916 C121.5159 89.1215 118.1867 89.8649 114.8574 90.6094 C71.844 100.1287 71.844 100.1287 53.5781 90.5977 C48.9626 87.6329 45.0262 84.0585 40.9548 80.3992 C22.1132 63.6074 -0.5992 58.8346 -25.1875 57.9375 C-25.7418 57.9159 -25.7418 57.9159 -28.5469 57.8066 C-31.2603 57.7014 -33.9738 57.5992 -36.6875 57.5 C-25.3142 45.9312 -12.8286 39.5919 3.5 39.1875 C15.3567 39.3654 26.2272 42.5004 37.3125 46.5 C28.6947 35.5138 17.214 28.0791 3.3125 25.5 C-16.5784 23.9816 -33.0576 30.4699 -48.1289 43.3594 C-51.422 46.2994 -54.561 49.3849 -57.6875 52.5 C-58.8367 53.6242 -59.9865 54.7479 -61.1367 55.8711 C-66.4101 61.0549 -71.5714 66.2501 -76.2227 72.0117 C-77.8902 73.7059 -79.5208 74.5541 -81.6875 75.5 C-79.6458 53.4052 -53.3752 28.3424 -37.25 14.875 C-25.5581 5.5311 -15.3382 -0.2872 0 0 Z " fill="#344892" transform="translate(228.6875,277.5)"/>
<path d="M0 0 C6.8111 5.3782 12.5274 11.5576 17.9871 18.2896 C22.069 23.2567 26.3202 27.4231 32.5625 29.5039 C44.5834 30.3089 55.617 28.9924 67.2769 26.0981 C69.6876 25.5039 72.1055 24.9534 74.5273 24.4062 C95.4751 19.481 115.6812 9.0625 127.5625 -9.4961 C128.5731 -11.1564 129.577 -12.8208 130.5625 -14.4961 C132.1633 -10.5142 130.8857 -7.2347 129.5625 -3.3711 C129.3347 -2.7046 129.1068 -2.038 128.8721 -1.3513 C123.7589 12.7919 113.3678 21.3342 100.5625 28.5039 C110.2062 27.0548 119.5583 24.8726 128.998 22.4512 C130.0622 22.1863 131.1263 21.9214 132.2227 21.6484 C132.7003 21.5265 132.7003 21.5265 135.1174 20.9094 C137.5625 20.5039 137.5625 20.5039 140.5625 21.5039 C118.6001 37.4986 94.2186 46.8997 67.5625 51.5039 C69.5123 52.2435 71.463 52.9812 73.418 53.707 C75.1157 54.3379 76.8087 54.9812 78.5 55.6289 C85.423 57.6069 92.5989 57.6486 99.7539 57.6016 C100.1693 57.6009 100.1693 57.6009 102.2712 57.5973 C104.8892 57.5917 107.5071 57.5792 110.125 57.5664 C111.9147 57.5614 113.7044 57.5568 115.4941 57.5527 C119.8503 57.5418 124.2064 57.5246 128.5625 57.5039 C124.9432 59.9168 121.2693 60.8727 117.125 62.0039 C116.3806 62.2166 115.6361 62.4293 114.8691 62.6484 C103.5927 65.7664 92.6883 66.8689 81 66.8164 C80.6715 66.8153 80.6715 66.8153 79.009 66.8099 C67.9164 66.7517 57.3672 66.0124 46.5625 63.5039 C45.7879 63.3265 45.0134 63.1491 44.2153 62.9663 C26.08 58.6702 8.4736 52.2503 -9.159 46.2751 C-14.9068 44.3297 -20.6595 42.3991 -26.4141 40.4738 C-28.3304 39.8314 -30.2453 39.1848 -32.1602 38.5381 C-33.3126 38.1517 -34.465 37.7653 -35.6523 37.3672 C-36.6539 37.0299 -37.6554 36.6925 -38.6873 36.345 C-56.1159 31.015 -74.7929 36.1528 -90.5955 44.0901 C-93.7962 45.8341 -96.9643 47.6259 -100.125 49.4414 C-102.4952 50.7838 -104.8689 52.12 -107.2422 53.457 C-107.8402 53.7951 -108.4381 54.1331 -109.0542 54.4814 C-115.239 57.9724 -121.4891 61.339 -127.75 64.6914 C-139.3425 70.9079 -150.8984 77.1891 -162.4375 83.5039 C-163.0975 83.1739 -163.7575 82.8439 -164.4375 82.5039 C-163.7576 81.8345 -163.0777 81.1651 -162.3772 80.4753 C-159.8054 77.9404 -157.2408 75.3983 -154.678 72.8542 C-153.5773 71.7635 -152.4748 70.6746 -151.3704 69.5876 C-142.3856 60.7418 -134.2607 51.5638 -126.875 41.3164 C-113.4664 23.4613 -92.9665 13.2831 -70.98 9.8174 C-51.3675 7.3993 -31.8188 10.4802 -13.4375 17.5039 C-13.1075 17.1739 -12.7775 16.8439 -12.4375 16.5039 C-20.4631 11.1262 -28.3367 5.9067 -37.4375 2.5039 C-37.8564 2.3447 -37.8564 2.3447 -39.9766 1.5391 C-62.0508 -5.3631 -89.1216 0.4908 -109.1992 10.9414 C-111.6898 12.371 -114.0703 13.8794 -116.4375 15.5039 C-117.0266 15.9074 -117.6157 16.3109 -118.2227 16.7266 C-123.0889 20.4884 -126.5958 25.3995 -130.3047 30.2478 C-133.5405 34.454 -136.9629 38.2431 -140.8086 41.9102 C-142.4375 43.5039 -142.4375 43.5039 -144.4375 46.0664 C-146.208 48.2242 -147.8645 49.7394 -150 51.5039 C-153.644 54.638 -156.8656 58.0562 -160 61.6914 C-160.4345 62.1832 -160.869 62.675 -161.3167 63.1816 C-163.531 65.8018 -165.3067 68.2295 -166.7934 71.3479 C-168.9765 75.8374 -170.7783 79.5373 -175.1822 82.1029 C-178.5105 83.2258 -181.788 84.0285 -185.2266 84.7461 C-186.4796 85.0478 -187.7327 85.3496 -189.0238 85.6604 C-192.3541 86.4611 -195.6949 87.2023 -199.0415 87.9316 C-202.3372 88.661 -205.6188 89.4487 -208.9023 90.2305 C-216.0679 91.9232 -223.2531 93.5164 -230.4493 95.0731 C-232.4718 95.5113 -234.4934 95.9532 -236.515 96.3956 C-240.4734 97.2602 -244.4354 98.1066 -248.3984 98.9492 C-249.5932 99.208 -250.788 99.4668 -252.019 99.7334 C-257.9513 100.9709 -263.3766 101.8077 -269.4375 101.5039 C-268.002 98.633 -266.2499 98.4666 -263.2773 97.3242 C-262.1855 96.8963 -261.0937 96.4684 -259.9688 96.0276 C-258.7828 95.566 -257.5969 95.1045 -256.375 94.6289 C-229.5735 83.9264 -205.1047 70.4105 -182.4375 52.5039 C-181.4114 51.7034 -180.3853 50.9029 -179.3281 50.0781 C-171.7905 43.9563 -164.9265 37.1719 -158.0625 30.3164 C-157.5878 29.8428 -157.1131 29.3691 -156.624 28.8812 C-151.5452 23.8011 -146.5993 18.6618 -141.9175 13.2131 C-105.5099 -28.834 -44.2746 -33.0904 0 0 Z " fill="#344892" transform="translate(572.4375,350.49609375)"/>
<path d="M0 0 C6.3258 5.4598 11.6482 12.0609 17.0508 18.4102 C22.5213 24.6969 28.4059 29.918 35 35 C35.9604 35.7528 36.9207 36.5056 37.9102 37.2812 C40.8999 39.5816 43.936 41.7997 47 44 C47.9488 44.7154 48.8975 45.4309 49.875 46.168 C57.4184 51.4032 64.431 53.3544 73.3455 55.1289 C80.1149 56.4891 86.4471 58.4083 92.9375 60.75 C101.4123 63.7679 108.9903 65.0969 118 65 C107.2968 77.4368 83.5971 81.5567 68 83 C34.8992 85.1397 11.4266 70.9444 -16.457 54.8516 C-30.0458 47.0185 -43.8702 39.731 -57.8135 32.5513 C-60.4616 31.185 -63.106 29.8118 -65.75 28.4375 C-66.5423 28.0319 -67.3346 27.6264 -68.1509 27.2085 C-68.5153 27.0188 -68.5153 27.0188 -70.3594 26.0586 C-70.9933 25.7317 -71.6272 25.4049 -72.2803 25.0681 C-74.1398 23.9132 -75.5152 22.6002 -77 21 C-76.6545 20.8826 -76.6545 20.8826 -74.9058 20.2883 C-59.1515 14.8952 -43.8109 8.9743 -28.6011 2.2043 C-27.4024 1.6716 -26.2037 1.1388 -24.9688 0.5898 C-23.9111 0.1141 -22.8534 -0.3616 -21.7637 -0.8518 C-14.5303 -3.857 -6.781 -4.4463 0 0 Z " fill="#344892" transform="translate(496,418)"/>
<path d="M0 0 C1.1349 0.204 2.2697 0.408 3.439 0.6182 C49.4852 9.1162 94.8424 23.753 134 50 C134.6772 50.4465 135.3545 50.893 136.0522 51.353 C145.1409 57.3589 153.8846 63.749 162.3262 70.6348 C163.4067 71.5161 164.4911 72.3928 165.5801 73.2637 C174.3546 80.303 182.3456 88.1374 190.3125 96.0625 C190.5685 96.3159 190.5685 96.3159 191.8642 97.5982 C198.7135 104.393 205.0207 111.4119 211 119 C211.3023 119.3753 211.3023 119.3753 212.8323 121.2747 C258.9617 178.572 284.2918 250.829 284.1875 324.375 C284.1872 324.7706 284.1872 324.7706 284.1857 326.7724 C284.1585 339.9353 283.6941 352.9322 282 366 C281.8764 366.9681 281.7528 367.9362 281.6255 368.9336 C273.2436 432.0869 246.3599 492.3382 204 540 C203.3529 540.7332 202.7058 541.4665 202.0391 542.2219 C196.4243 548.5317 190.5945 554.5886 184.625 560.5625 C183.7562 561.4436 182.8873 562.3246 181.9922 563.2324 C175.9779 569.26 169.6825 574.7276 163 580 C162.2946 580.5647 161.5891 581.1294 160.8623 581.7112 C116.2308 617.25 63.9838 639.0428 8 649 C7 649.1808 6 649.3616 4.9697 649.5479 C-78.9911 663.9272 -169.4678 638.4537 -238.4868 590.2637 C-249.5353 582.4452 -259.9948 574.1117 -270 565 C-270.6666 564.3951 -271.3332 563.7902 -272.02 563.167 C-280.7965 555.1681 -289.2458 547.0071 -297 538 C-297.5277 537.39 -298.0554 536.7799 -298.5991 536.1514 C-311.4966 521.1383 -323.1104 505.0975 -332.917 487.8926 C-334.0557 485.9027 -335.2191 483.9285 -336.3828 481.9531 C-361.5003 438.7325 -376.8008 385.8287 -377.2383 335.8047 C-377.2481 334.8664 -377.2579 333.928 -377.268 332.9613 C-377.9338 252.4719 -354.1699 177.761 -303 115 C-302.7842 114.732 -302.7842 114.732 -301.6924 113.376 C-295.071 105.1943 -287.8532 97.6523 -280.4375 90.1875 C-279.5753 89.316 -278.7131 88.4445 -277.8247 87.5466 C-272.6375 82.3844 -267.2698 77.6168 -261.5459 73.0562 C-258.9009 70.9199 -256.3569 68.6921 -253.8125 66.4375 C-210.8085 30.6194 -156.5512 9.7147 -102 0 C-101.0053 -0.1808 -100.0107 -0.3616 -98.9858 -0.5479 C-67.4976 -5.9767 -31.4198 -5.7275 0 0 Z M-252 142 C-252.5636 142.5311 -253.1273 143.0622 -253.708 143.6094 C-277.944 166.5205 -288.9428 192.8614 -298.8125 224.1875 C-299.524 226.434 -300.236 228.6803 -300.9485 230.9265 C-302.0038 234.2535 -303.0587 237.5806 -304.1114 240.9083 C-305.9985 246.8688 -307.9077 252.8207 -309.8672 258.7578 C-322.2852 296.4573 -322.2852 296.4573 -322.0625 309.375 C-322.0419 310.5712 -322.0213 311.7675 -322 313 C-321.01 313 -320.02 313 -319 313 C-318.6784 312.2909 -318.3568 311.5819 -318.0254 310.8513 C-299.3468 269.7671 -277.3269 232.7612 -233.8516 214.6914 C-213.2223 207.1421 -192.0908 209.6205 -172.4375 218.625 C-164.2885 222.5381 -157.0111 227.3098 -150 233 C-149.4539 233.443 -148.9078 233.8859 -148.3452 234.3423 C-134.5617 245.7706 -124.2765 260.2221 -116 276 C-115.67 276 -115.34 276 -115 276 C-114.7309 270.2419 -115.6688 265.3548 -117.1875 259.8125 C-117.4153 258.9739 -117.643 258.1353 -117.8777 257.2712 C-122.4236 240.9884 -130.1265 228.0844 -142 216 C-142.6123 215.3748 -143.2246 214.7496 -143.8555 214.1055 C-163.7356 195.3275 -193.9002 190.2222 -219.8572 186.3804 C-237.8427 183.6564 -237.8427 183.6564 -243 178 C-244.4469 174.654 -244.0565 173.1761 -242.9375 169.6875 C-232.5544 148.1763 -205.6825 135.9352 -184.2031 128.3789 C-158.4869 119.7397 -131.6259 116.8049 -105 123 C-104.3078 123.161 -103.6155 123.3219 -102.9023 123.4878 C-70.5828 131.3487 -41.1412 150.6405 -17.4746 173.5723 C-16.0408 174.9605 -14.5909 176.3321 -13.1406 177.7031 C-0.7872 189.6377 9.3784 203.8201 18.7422 218.1797 C19.1933 218.8694 19.6444 219.5591 20.1091 220.2698 C20.9774 221.6049 21.8379 222.9451 22.6897 224.2908 C25.6713 228.8904 25.6713 228.8904 29 230 C28.5392 223.3254 26.6838 218.2919 23.75 212.3125 C23.3082 211.4026 22.8663 210.4927 22.4111 209.5552 C11.8794 188.3569 -1.7364 168.2203 -18 151 C-19.0883 149.7334 -20.1717 148.4626 -21.25 147.1875 C-52.405 111.7647 -89.199 98.2879 -135.3657 95.1567 C-180.828 92.4518 -219.6592 111.0359 -252 142 Z M-226 166 C-228 169 -228 169 -227.625 171.6875 C-227.4187 172.4506 -227.2125 173.2138 -227 174 C-223.7389 175.6306 -220.1526 175.0564 -216.5742 174.9922 C-214.8198 174.9719 -213.0653 174.9526 -211.3108 174.9343 C-210.3916 174.9239 -209.4724 174.9134 -208.5254 174.9027 C-177.8818 174.6038 -177.8818 174.6038 -163 178 C-162.244 178.1663 -161.4879 178.3326 -160.709 178.5039 C-129.7892 185.5371 -103.4452 202.472 -86.3127 229.3923 C-79.6814 240.1993 -74.7313 251.4562 -71.5459 263.7317 C-71.0812 265.5018 -70.5469 267.2535 -70 269 C-69.34 269.33 -68.68 269.66 -68 270 C-63.0105 247.5524 -68.0196 222.2103 -80.125 202.875 C-88.7053 189.89 -99.6237 180.5079 -112.1074 171.3848 C-114.575 169.5793 -117.0123 167.7369 -119.4375 165.875 C-120.0962 165.3774 -120.7549 164.8798 -121.4336 164.3672 C-123 163 -123 163 -125 160 C-109.6051 155.2223 -93.0249 161.5768 -79.25 168.75 C-72.5113 172.4137 -66.6635 176.815 -61 182 C-60.1711 182.7477 -59.3423 183.4953 -58.4883 184.2656 C-47.02 195.1398 -38.9348 208.3551 -31.1729 221.9878 C-29.1977 225.3765 -27.1022 228.6891 -25 232 C-24.34 232 -23.68 232 -23 232 C-23.5798 225.4379 -25.7262 219.6925 -28.0625 213.5625 C-28.4673 212.4979 -28.8722 211.4333 -29.2893 210.3364 C-40.075 182.4524 -56.8591 157.0732 -84.7471 143.979 C-88.983 142.1383 -93.3145 140.6053 -97.6875 139.125 C-98.1086 138.9819 -98.1086 138.9819 -100.2395 138.2576 C-111.8102 134.5313 -123.0299 133.672 -135.0898 133.7393 C-137.3649 133.75 -139.6391 133.7393 -141.9141 133.7266 C-172.6026 133.6968 -202.9301 145.4115 -226 166 Z M-265.2637 243.3267 C-266.765 244.7735 -268.2797 246.2065 -269.7969 247.6367 C-282.5962 259.9673 -295.8276 276.1661 -302 293 C-302 293.99 -302 294.98 -302 296 C-297.7654 295.5295 -295.756 292.9456 -293 290 C-291.7106 288.7269 -290.4187 287.4562 -289.125 286.1875 C-286.5373 283.6094 -284.099 280.9834 -281.75 278.1875 C-267.9934 262.355 -248.958 247.6086 -227.4219 245.7812 C-211.2573 245.227 -196.696 252.1132 -185 263 C-184.67 263.66 -184.34 264.32 -184 265 C-196 262 -196 262 -199.7344 260.9219 C-214.4895 257.2578 -230.1552 259.4565 -243.25 266.8125 C-247.8401 269.7315 -252.2989 272.9888 -256 277 C-256 277.66 -256 278.32 -256 279 C-254.8979 278.9768 -253.7957 278.9536 -252.6602 278.9297 C-224.3548 278.5143 -199.4231 283.6521 -177.5 302.5625 C-163.9409 314.2224 -151.7909 318.1903 -134 317 C-131.0878 316.6827 -128.2035 316.2487 -125.3125 315.7773 C-124.5019 315.6468 -123.6914 315.5162 -122.8562 315.3817 C-113.7512 313.8639 -104.7522 311.8905 -95.7566 309.8308 C-92.9385 309.1877 -90.117 308.5612 -87.2949 307.9355 C-68.8659 303.7896 -51.7597 297.7175 -34.4375 290.25 C-31.1214 288.8308 -27.8033 287.4165 -24.4844 286.0039 C-23.6741 285.6585 -22.8638 285.3131 -22.029 284.9572 C-17.0521 282.8442 -12.0538 280.8022 -7.0156 278.8398 C-5.8472 278.3838 -4.6787 277.9278 -3.4749 277.458 C-1.3358 276.6313 0.8068 275.8137 2.9534 275.0068 C3.8827 274.6475 4.812 274.2882 5.7695 273.918 C6.5698 273.6166 7.3701 273.3152 8.1946 273.0046 C10 272 10 272 11 269 C4.319 268.7464 -1.7729 269.669 -8.3125 271 C-9.3948 271.2193 -10.4772 271.4386 -11.5923 271.6646 C-27.8066 275.0861 -43.6984 279.8712 -59.1875 285.75 C-75.9238 292.0577 -92.1486 294.0986 -109.896 295.6985 C-112.4773 295.9492 -115.0338 296.258 -117.6016 296.6172 C-126.2483 297.5912 -133.1242 294.0116 -140 289 C-147.0516 282.2689 -150.5371 272.8048 -153.25 263.625 C-157.9987 248.2264 -170.2161 235.1174 -184.1406 227.3125 C-193.6206 222.961 -203.5524 220.2306 -214 220 C-215.1718 219.9381 -216.3435 219.8763 -217.5508 219.8125 C-238.8463 219.1164 -250.7641 229.3374 -265.2637 243.3267 Z M-17.2627 306.0569 C-19.2553 308.0678 -21.2559 310.0706 -23.2578 312.0723 C-28.8959 317.7265 -34.4815 323.3693 -39.6602 329.4534 C-64.1826 357.7606 -104.4713 377.8018 -138.9697 390.4514 C-139.7506 390.7459 -140.5314 391.0404 -141.3359 391.3438 C-141.6791 391.4685 -141.6791 391.4685 -143.4155 392.0996 C-145 393 -145 393 -146 396 C-136.5184 395.5317 -127.4753 393.8016 -118.25 391.6875 C-117.5036 391.5186 -116.7573 391.3497 -115.9883 391.1757 C-109.9846 389.8158 -103.9909 388.4149 -98 387 C-97.4906 386.8798 -97.4906 386.8798 -94.9128 386.2718 C-88.3524 384.7202 -81.7983 383.1442 -75.2499 381.5426 C-73.0886 381.0155 -70.9263 380.4928 -68.7628 379.9747 C-65.7132 379.2421 -62.6688 378.4908 -59.625 377.7344 C-58.7099 377.5179 -57.7948 377.3014 -56.852 377.0784 C-49.2403 375.1489 -46.4698 371.9814 -42.3125 365.375 C-37.2448 357.6949 -31.3463 351.294 -24.8125 344.8672 C-10.4923 330.771 -10.4923 330.771 -4.8125 323.3125 C-4.3735 322.7371 -3.9345 322.1617 -3.4822 321.5688 C-3.0678 321.0241 -2.6535 320.4793 -2.2266 319.918 C10.451 303.3037 30.6654 297.4058 50.5 293.5625 C70.8174 290.9124 90.1291 295.2832 107 307 C108.0278 307.9714 109.0391 308.9624 110 310 C108.8888 309.6623 107.7777 309.3245 106.6328 308.9766 C95.4856 305.62 84.6669 302.7562 73 302 C72.2059 301.9459 71.4119 301.8917 70.5938 301.8359 C48.0779 301.0715 23.3211 308.9309 6.125 323.6875 C1.4273 328.2122 -2.0538 333.211 -5.6289 338.6406 C-9.3206 344.0625 -13.9562 348.6736 -18.4814 353.396 C-20.4777 355.5046 -22.414 357.664 -24.354 359.8242 C-28.4491 364.3734 -32.6321 368.6746 -37.3438 372.5977 C-38.9872 373.9891 -40.4987 375.4575 -42 377 C-41.67 377.66 -41.34 378.32 -41 379 C-22.9525 369.6687 -5.0702 360.074 12.6661 350.1642 C18.7667 346.7566 24.8789 343.3705 31 340 C31.7638 339.5775 32.5275 339.155 33.3145 338.7197 C45.2879 332.155 56.765 328.705 70.375 328.4375 C71.1756 328.4105 71.9762 328.3835 72.801 328.3557 C86.697 328.4422 100.6889 334.8269 113.6107 339.4768 C159.7083 356.0328 208.4004 371.4138 256 351 C256 350.67 256 350.34 256 350 C255.4267 350.0303 254.8534 350.0606 254.2627 350.0918 C231.726 351.267 231.726 351.267 223 351 C221.8979 350.9716 220.7957 350.9433 219.6602 350.9141 C210.9028 350.5076 203.2883 348.7082 195 346 C195 345.67 195 345.34 195 345 C195.2809 344.9452 195.2809 344.9452 196.7021 344.668 C220.8449 339.8492 245.9604 331.2695 265 315 C265.33 314.34 265.66 313.68 266 313 C256.9445 314.7299 247.9872 316.8398 239.0176 318.9648 C237.8993 319.2265 236.7811 319.4882 235.6289 319.7578 C234.619 319.9965 233.6091 320.2351 232.5686 320.481 C230 321 230 321 227 321 C227.9294 320.4431 228.8588 319.8863 229.8164 319.3125 C242.4031 311.6159 251.3284 303.041 255.0391 288.1172 C255.7663 284.7528 256.4277 281.3938 257 278 C256.34 278 255.68 278 255 278 C254.5759 278.7013 254.1518 279.4025 253.7148 280.125 C238.3178 305.031 216.5881 312.8794 189.4492 319.3008 C162.8714 325.4357 162.8714 325.4357 154 321 C148.0484 317.0398 143.261 312.3597 138.5 307.0625 C118.8255 285.2962 92.4723 272.4729 62.96 270.8906 C28.712 269.6309 6.2697 282.3003 -17.2627 306.0569 Z M-283.5273 127.6484 C-295.6697 141.6997 -305.8213 157.5399 -314.7681 173.771 C-315.9252 175.8646 -317.1067 177.9424 -318.293 180.0195 C-340.0101 218.7466 -353.1757 266.5844 -354 311 C-354.0205 312.0055 -354.0409 313.0109 -354.062 314.0469 C-355.4905 397.5356 -327.4855 475.2276 -271 537 C-270.1221 537.9823 -269.2443 538.9645 -268.3398 539.9766 C-262.5692 546.4114 -256.5354 552.3366 -250 558 C-248.8929 559.0139 -247.7875 560.0296 -246.6836 561.0469 C-235.7139 571.0062 -225.2185 576.4101 -210.1172 576.207 C-198.4167 575.4299 -189.5396 569.069 -180.8125 561.6875 C-156.6505 541.5181 -126.7756 532.6145 -95.5615 535.2021 C-77.5006 537.1906 -60.585 542.9035 -43.75 549.5 C-5.7289 564.3814 32.0576 566.9712 70.0029 550.7134 C83.5053 544.6636 96.4392 537.6718 109.25 530.2891 C118.0634 525.2162 127.0429 520.4478 135.9951 515.626 C139.0787 513.9574 142.1538 512.2742 145.2266 510.5859 C146.2281 510.0362 147.2296 509.4865 148.2615 508.9202 C150.1619 507.876 152.0613 506.8297 153.9592 505.781 C154.8119 505.3132 155.6645 504.8453 156.543 504.3633 C157.2857 503.9538 158.0285 503.5442 158.7937 503.1223 C161.1468 501.9253 163.5363 500.9453 166 500 C144.7465 518.4262 120.145 532.8091 95.6812 546.4985 C93.8666 547.5147 92.0544 548.5354 90.2446 549.5601 C54.8462 569.5813 20.9026 580.1951 -19.4592 569.0999 C-28.4317 566.4755 -36.9356 563.0275 -45.4827 559.2607 C-76.9491 545.4119 -109.7618 542.8741 -142.24 555.2722 C-161.3936 562.9227 -177.2522 574.8895 -193 588 C-193.6664 588.553 -194.3329 589.106 -195.0195 589.6758 C-196.3488 590.7809 -197.6749 591.8898 -199 593 C-199 593.66 -199 594.32 -199 595 C-184.4943 603.734 -184.4943 603.734 -179.1875 603.3125 C-177.0781 602.7852 -177.0781 602.7852 -175 602 C-174.6365 601.8756 -174.6365 601.8756 -172.7969 601.2461 C-162.5008 596.8993 -153.1447 588.2863 -145.3828 580.3711 C-133.4582 568.2566 -117.1683 560.844 -100.125 560.6875 C-83.98 560.6719 -70.0005 567.1145 -55.7734 574.0547 C-33.4014 584.931 -11.1222 589.213 13.75 589.1875 C14.4709 589.1882 15.1918 589.189 15.9345 589.1897 C28.3768 589.1883 40.6391 588.4807 53 587 C22.7248 596.7813 -3.9799 601.6695 -34.8181 591.7017 C-38.4024 590.549 -41.9978 589.4323 -45.5938 588.3164 C-45.9543 588.2044 -45.9543 588.2044 -47.7791 587.6374 C-108.1812 568.9107 -108.1812 568.9107 -125.293 577.3828 C-140.0778 586.2153 -151.6581 598.3388 -159 614 C-151.0181 617.4705 -143.0125 620.4637 -134.6875 623 C-134.1264 623.1712 -134.1264 623.1712 -131.2866 624.0378 C-107.0583 631.2736 -81.6465 636.0812 -56.3047 636.2031 C-55.3222 636.2101 -54.3396 636.2172 -53.3273 636.2244 C-50.1765 636.2418 -47.0259 636.2482 -43.875 636.25 C-43.3365 636.2503 -43.3365 636.2503 -40.6113 636.252 C-24.8589 636.2364 -9.5347 635.8361 6 633 C7.0404 632.8178 8.0809 632.6355 9.1528 632.4478 C55.4894 624.2124 97.0298 602.9142 134 574 C135.2119 573.0646 136.4241 572.1297 137.6367 571.1953 C148.3075 562.9329 158.6122 554.2628 168.5977 545.1836 C170.2433 543.6878 171.8974 542.2012 173.5586 540.7227 C181.5784 533.5818 189.0309 526.1678 196 518 C196.7889 517.1002 197.5778 516.2005 198.3906 515.2734 C242.5126 464.6045 268.7331 399.8104 268.0625 332.1875 C268.0602 331.7399 268.0602 331.7399 268.0488 329.4746 C268.0373 327.3164 268.0194 325.1582 268 323 C264.3176 324.3566 261.1704 326.0273 257.875 328.1523 C256.9211 328.764 255.9672 329.3757 254.9844 330.0059 C253.9995 330.6433 253.0147 331.2807 252 331.9375 C250.042 333.1971 248.0837 334.4563 246.125 335.7148 C245.2613 336.2729 244.3977 336.831 243.5078 337.406 C241.0297 338.9811 238.5244 340.5005 236 342 C236 342.66 236 343.32 236 344 C244.0125 345.0339 251.9291 345.1047 260 345 C260.33 347.64 260.66 350.28 261 353 C260.4504 353.1818 259.9008 353.3635 259.3345 353.5508 C255.4499 354.8398 251.5723 356.1429 247.7109 357.5 C204.0998 372.725 164.4841 360.7199 122.2048 347.5811 C120.4335 347.0306 118.6621 346.4808 116.8904 345.9315 C112.6261 344.6092 108.3641 343.2804 104.1069 341.9353 C85.1472 335.9878 67.2758 332.939 48.5352 341.6016 C45.9679 342.9959 43.465 344.4333 41 346 C41 347.32 41 348.64 41 350 C41.3332 350.2365 41.3332 350.2365 43.0195 351.4336 C57.2908 361.673 70.4258 372.9424 81.8125 386.375 C93.338 399.8998 106.6231 407.1873 124 410.3125 C131.2675 411.6625 138.0187 413.9338 144.9473 416.4875 C160.1094 422.0634 171.2188 421.3851 186.793 416.9102 C191.6061 415.7021 196.313 415.7429 201.25 415.8125 C201.6921 415.8128 201.6921 415.8128 203.9297 415.8145 C207.8058 415.8408 211.2524 415.9333 215 417 C214.2449 417.1305 213.4899 417.261 212.7119 417.3955 C209.2229 418.0042 205.7365 418.627 202.25 419.25 C201.0628 419.455 199.8755 419.6599 198.6523 419.8711 C185.1134 422.3126 173.8829 426.5647 162.1719 433.7305 C140.6474 446.766 113.6053 454.3695 88.5081 448.8743 C85.2845 448.0471 82.157 447.059 79 446 C77.8888 445.6339 76.7777 445.2678 75.6328 444.8906 C51.1235 435.8872 26.9275 421.786 5.8125 406.5 C-5.3262 398.4551 -16.8053 394.4475 -30 391 C-30.4557 390.8808 -30.4557 390.8808 -32.7617 390.2773 C-68.8425 382.4337 -107.4808 392.5957 -140.0625 407.9375 C-141.0852 408.4152 -142.1079 408.8929 -143.1616 409.385 C-150.366 412.8804 -156.6741 417.104 -163 422 C-163.6667 422.5122 -164.3334 423.0245 -165.0203 423.5522 C-170.004 427.4661 -173.7159 432.4261 -177.6621 437.3418 C-194.7038 458.4635 -213.8911 471.4635 -241.5269 474.6208 C-254.3781 475.7628 -265.923 473.2671 -277.3125 467.25 C-288.0002 458.3022 -289.3433 441.7857 -290.6875 428.6602 C-292.2589 410.2556 -290.4182 391.5715 -280 376 C-279.4019 375.0925 -278.8037 374.185 -278.1875 373.25 C-270.5239 365.3674 -259.7799 360.6224 -248.875 359.75 C-238.8888 360.3943 -230.2939 363.6134 -223.2148 370.8164 C-217.9155 377.2616 -215.313 385.1725 -215.6523 393.5234 C-217.1072 403.8871 -221.0963 414.0963 -228.5625 421.5625 C-231.0959 423.0565 -233.0902 423.6675 -236 424 C-238.3727 419.4029 -238.6801 415.0558 -238 410 C-236.423 405.1446 -234.2087 400.9727 -231 397 C-229.4662 392.3987 -229.0953 387.6522 -230.6836 382.9961 C-232.9594 378.6239 -235.6037 376.1167 -240 374 C-247.6877 371.9193 -254.0062 373.452 -261 377 C-270.3674 382.7 -275.775 390.6462 -279 401 C-281.5444 411.8714 -280.5451 427.7284 -274.8125 437.625 C-273.4961 439.3672 -273.4961 439.3672 -272 441 C-271.7171 441.3107 -271.7171 441.3107 -270.2852 442.8828 C-263.5122 449.5034 -255.7573 452.1606 -246.375 452.5 C-235.274 452.0927 -228.5899 446.8371 -221.1445 439.0625 C-203.8358 419.0771 -190.0425 389.6905 -191.7798 362.9536 C-192.9538 352.5385 -198.6966 344.5609 -206.4336 337.8945 C-219.2018 328.469 -235.6039 326.5085 -250.9375 328.75 C-266.4997 331.6555 -278.5022 339.2346 -288 352 C-289.6564 354.4906 -291.1928 357.0345 -292.6875 359.625 C-293.0318 360.2147 -293.3762 360.8045 -293.731 361.4121 C-300.7192 374.1374 -304.3419 388.2473 -307.75 402.25 C-308.3274 404.5988 -308.9076 406.9469 -309.4932 409.2936 C-309.8523 410.7348 -310.2066 412.1772 -310.5551 413.6209 C-311.384 416.968 -312.2804 419.9989 -314 423 C-314.66 423 -315.32 423 -316 423 C-318.446 416.06 -319.5202 409.8491 -319.4375 402.5 C-319.4307 401.5488 -319.4238 400.5975 -319.4167 399.6174 C-318.911 376.9143 -310.3635 356.6446 -295.8594 339.2734 C-294.1503 337.1838 -292.6446 335.0407 -291.125 332.8125 C-282.4911 321.3392 -266.832 315.8427 -253.1797 313.4727 C-233.5563 310.9589 -213.1412 312.9885 -196.9492 325.3242 C-185.1436 336.0353 -179.6599 351.0072 -178.7969 366.6914 C-178.6035 382.6623 -182.358 395.0859 -190 409 C-190.5316 409.9863 -191.0632 410.9726 -191.6108 411.9888 C-193.393 415.2922 -195.1932 418.5851 -197 421.875 C-197.2844 422.3979 -197.2844 422.3979 -198.7239 425.0442 C-209.8958 445.0785 -224.3303 456.0394 -246.2305 462.3086 C-248.8101 462.9526 -251.3875 463.5081 -254 464 C-254 464.66 -254 465.32 -254 466 C-225.8903 464.2657 -208.3813 455.7087 -189.5312 434.793 C-185.2978 430.1218 -180.9304 425.7659 -176.125 421.6875 C-168.4807 415.0301 -162.4392 407.6222 -157.1819 398.9978 C-148.6871 385.1213 -136.8829 379.7454 -122.28 373.8503 C-97.3296 363.7094 -75.361 348.8222 -55.6953 330.4844 C-53.5548 328.5114 -51.387 326.6 -49.1836 324.6992 C-44.9271 320.9878 -40.918 317.0661 -36.9375 313.0625 C-36.2691 312.398 -35.6007 311.7335 -34.9121 311.0488 C-30.9671 307.0961 -27.2075 303.0342 -23.5603 298.8054 C-20.9397 295.7731 -18.2142 292.8348 -15.5039 289.8828 C-14 288 -14 288 -14 286 C-20.6287 288.0498 -26.87 290.6465 -33.1875 293.5 C-65.1094 307.6143 -98.9097 319.3401 -133.625 323.8125 C-134.1045 323.8745 -134.1045 323.8745 -136.531 324.1885 C-153.6674 326.1998 -169.3829 324.9868 -184 315 C-186.546 312.7968 -188.9878 310.5433 -191.4062 308.2048 C-204.5878 295.6309 -219.7152 289.2945 -237.875 289.582 C-260.0996 290.5999 -285.7818 296.6198 -301.4961 313.1211 C-317.386 331.3908 -326.5102 352.31 -331 376 C-331.33 376 -331.66 376 -332 376 C-332.9355 366.8277 -333.2032 357.7158 -333.1875 348.5 C-333.1866 347.7828 -333.1856 347.0656 -333.1847 346.3267 C-333.0373 293.6598 -324.2971 241.0903 -300 194 C-299.5156 193.0548 -299.0313 192.1096 -298.5322 191.1357 C-293.8097 181.997 -289.0886 173.399 -282.25 165.6445 C-279.5817 162.5084 -277.2782 159.1953 -274.9375 155.8125 C-265.7751 142.7935 -253.5754 133.8584 -240.3438 125.2578 C-237.7808 123.5612 -235.308 121.7667 -232.8438 119.9297 C-207.6597 101.1594 -180.2241 92.3921 -150 85 C-149.1458 84.7894 -148.2917 84.5788 -147.4116 84.3618 C-109.1068 75.1893 -67.2944 91.2205 -33.7944 109.0498 C-31.9935 110.0034 -30.1805 110.9295 -28.3633 111.8516 C-0.8798 125.9447 23.7859 144.7847 47 165 C47.66 164.67 48.32 164.34 49 164 C33.5422 141.2963 14.2085 120.2486 -8 104 C-9.1278 103.154 -10.2554 102.3076 -11.3828 101.4609 C-92.6291 41.2002 -192.9359 56.2121 -283.5273 127.6484 Z M16.6792 363.8184 C11.3324 366.1765 5.9117 368.3585 0.5 370.5625 C-0.6574 371.0357 -1.8148 371.509 -3.0073 371.9966 C-11.9131 375.6156 -20.8838 378.9527 -30 382 C-27.2575 385.2902 -23.6185 386.9026 -19.8594 388.7734 C-18.3932 389.5165 -16.9271 390.2596 -15.4609 391.0027 C-14.6923 391.3895 -13.9237 391.7763 -13.1318 392.1749 C0.8267 399.208 14.5509 406.5399 28.0981 414.3389 C64.0536 434.9211 94.7737 451.9018 136.9604 440.5869 C147.5358 437.5437 160.4341 433.278 168 425 C167.1286 425.0348 166.2572 425.0696 165.3594 425.1055 C155.2381 425.3355 146.6333 424.0392 137.3125 420.0625 C131.4201 417.5659 125.2764 416.3079 119.0508 414.9297 C95.0435 409.4952 74.3666 390.3767 58.625 372.125 C46.9081 358.579 46.9081 358.579 40.6797 357.6562 C31.615 357.1513 24.7319 360.1973 16.6792 363.8184 Z " fill="#FFFFFF" transform="translate(448,57)"/>
<path d="M0 0 C15.9966 0.0448 27.4158 5.0857 40 15 C68.8728 37.4043 99.5615 37.3133 134.1875 34 C165.8559 30.9856 165.8559 30.9856 177.3125 33 C177.8571 33.0928 177.8571 33.0928 180.6133 33.5625 C181.4009 33.7069 182.1885 33.8512 183 34 C183 34.33 183 34.66 183 35 C182.6988 35.0099 182.6988 35.0099 181.1743 35.0601 C162.079 35.716 144.1875 37.1453 125.6445 41.8789 C100.2613 48.1959 71.0798 42.1178 48.2461 29.9883 C41.7242 25.9935 35.8381 21.2021 29.9727 16.3086 C21.2523 9.3056 10.4508 4.7674 0 1 C0 0.67 0 0.34 0 0 Z " fill="#FFFFFF" transform="translate(508,407)"/>
<path d="M0 0 C24.3998 19.0935 48.8349 37.1622 79 45.7227 C79.6998 45.9215 80.3996 46.1203 81.1206 46.3252 C101.7764 51.899 125.3887 52.881 145.8125 45.9727 C146.4475 45.7637 147.0825 45.5547 147.7368 45.3394 C159.707 41.3151 170.0768 35.0768 179.6875 26.9102 C189.759 18.6354 203.181 12.9708 215.8125 9.9727 C216.8025 10.3027 217.7925 10.6327 218.8125 10.9727 C182.6314 40.8413 139.5133 63.1273 91.3149 58.7456 C62.9118 55.5382 33.8739 44.2704 11.8125 25.9727 C11.3006 25.554 10.7887 25.1354 10.2612 24.7041 C4.655 20.1136 -0.7805 15.395 -6.0134 10.3823 C-22.5084 -5.3255 -40.0294 -12.6495 -62.9688 -12.3008 C-88.4791 -11.3645 -107.5818 5.3524 -124.1875 22.9727 C-126.0039 24.9865 -127.7782 27.0244 -129.5352 29.0898 C-135.5779 35.9754 -142.254 42.0579 -149.4141 47.7539 C-151.2481 49.2211 -153.0564 50.7211 -154.8359 52.2539 C-171.7847 66.7672 -191.7169 73.9149 -214.1875 72.9727 C-217.2722 72.6962 -220.317 72.2724 -223.375 71.7852 C-224.1907 71.6571 -225.0065 71.5291 -225.8469 71.3972 C-233.3333 70.1242 -240.1748 67.8669 -247.1875 64.9727 C-247.1875 64.6427 -247.1875 64.3127 -247.1875 63.9727 C-246.1108 63.9936 -245.0341 64.0146 -243.9248 64.0361 C-203.9882 64.7449 -203.9882 64.7449 -188.1875 59.9727 C-187.5041 59.7801 -186.8208 59.5875 -186.1167 59.3892 C-166.7852 53.8993 -154.8718 42.777 -141.1179 28.8848 C-138.2237 25.9693 -135.326 23.1283 -132.1875 20.4727 C-124.369 13.8362 -116.9509 6.3486 -110.3125 -1.4648 C-99.6271 -13.9002 -85.651 -20.3335 -69.3359 -21.8984 C-42.7915 -23.4911 -20.8412 -16.3237 0 0 Z " fill="#FFFFFF" transform="translate(450.1875,492.02734375)"/>
<path d="M0 0 C0.6336 0.4203 1.2672 0.8407 1.9201 1.2738 C10.8107 7.1932 19.3637 13.4487 27.75 20.0625 C27.42 20.2275 27.42 20.2275 25.75 21.0625 C24.6441 20.5445 23.5383 20.0266 22.3989 19.4929 C-14.6727 2.1459 -14.6727 2.1459 -30 -4.375 C-30.9705 -4.7918 -31.941 -5.2085 -32.9409 -5.6379 C-60.3269 -17.1146 -90.5643 -20.8708 -118.6277 -9.509 C-131.4545 -4.004 -141.819 3.9339 -152.25 13.0625 C-154.5996 15.1095 -156.9536 17.1512 -159.3125 19.1875 C-159.6006 19.4362 -159.6006 19.4362 -161.0583 20.6951 C-166.5887 25.4284 -172.3583 29.7894 -178.25 34.0625 C-178.25 30.087 -176.4261 27.7745 -174.3125 24.5625 C-173.9028 23.9367 -173.4931 23.3108 -173.071 22.666 C-163.465 8.221 -151.1561 -5.8191 -136.25 -14.9375 C-135.3644 -15.5176 -134.4788 -16.0977 -133.5664 -16.6953 C-127.8371 -20.2868 -122.0315 -22.977 -115.6875 -25.25 C-115.0158 -25.4924 -114.3441 -25.7348 -113.6521 -25.9846 C-73.2807 -39.7232 -33.2441 -22.0891 0 0 Z " fill="#FFFFFF" transform="translate(478.25,545.9375)"/>
<path d="M0 0 C25.6506 10.89 51.569 13.9634 79.1523 14.9102 C79.1523 15.2402 79.1523 15.5702 79.1523 15.9102 C49.9986 22.0787 21.6191 20.1547 -5.8477 8.9102 C-33.0753 -2.1029 -57.6396 -5.4707 -86.8477 -3.0898 C-64.9332 -25.0043 -23.03 -9.9302 0 0 Z " fill="#FFFFFF" transform="translate(434.84765625,572.08984375)"/>
<path d="M0 0 C1.2249 -0.0029 2.4499 -0.0057 3.7119 -0.0087 C6.2895 -0.0107 8.8671 -0.0053 11.4446 0.0073 C15.3638 0.0234 19.282 0.0075 23.2012 -0.0117 C25.7175 -0.0097 28.2337 -0.0059 30.75 0 C31.9087 -0.0061 33.0673 -0.0121 34.2611 -0.0184 C42.6132 0.0529 51.0899 0.5688 58.0039 5.6484 C62.3751 11.8527 61.9414 16.717 61.9414 24.3984 C54.3514 24.3984 46.7614 24.3984 38.9414 24.3984 C37.9514 22.4184 36.9614 20.4384 35.9414 18.3984 C30.0428 17.0067 24.1618 17.2124 18.1313 17.2131 C16.0795 17.211 14.0283 17.1928 11.9766 17.1738 C10.6682 17.1719 9.3598 17.17 8.0117 17.168 C6.8234 17.1639 5.635 17.1598 4.4106 17.1555 C0.6057 17.4219 -2.441 18.2325 -6.0586 19.3984 C-6.0586 21.7084 -6.0586 24.0184 -6.0586 26.3984 C3.1929 27.2076 12.4097 27.6005 21.6914 27.8359 C52.3655 28.7761 52.3655 28.7761 60.9414 34.3984 C65.9909 41.1311 65.3633 50.8096 64.2539 58.7734 C63.3272 63.4376 62.2887 66.8702 58.9414 70.3984 C52.8711 73.6584 47 74.5169 40.1865 74.5437 C39.0781 74.5501 37.9696 74.5565 36.8276 74.563 C35.6431 74.5641 34.4586 74.5653 33.2383 74.5664 C32.0053 74.5697 30.7723 74.5731 29.502 74.5765 C26.8964 74.5815 24.2907 74.5839 21.6851 74.5837 C17.7196 74.5859 13.7545 74.6041 9.7891 74.623 C7.2513 74.626 4.7135 74.628 2.1758 74.6289 C0.9994 74.6361 -0.177 74.6433 -1.389 74.6507 C-10.7939 74.6249 -20.3798 74.3534 -28.0586 68.3984 C-31.9789 62.476 -31.0586 56.4719 -31.0586 49.3984 C-23.4686 49.3984 -15.8786 49.3984 -8.0586 49.3984 C-7.3986 51.3784 -6.7386 53.3584 -6.0586 55.3984 C0.578 58.7167 10.1925 57.5524 17.4414 57.5234 C18.4095 57.5273 19.3776 57.5312 20.375 57.5352 C37.8281 57.5117 37.8281 57.5117 39.9414 55.3984 C40.0664 51.8984 40.0664 51.8984 39.9414 48.3984 C36.1781 44.6351 23.8531 46.1405 18.6562 45.9688 C16.7246 45.8951 14.7929 45.8209 12.8613 45.7461 C9.8643 45.6326 6.8674 45.5231 3.8699 45.4243 C0.9439 45.3262 -1.981 45.2113 -4.9062 45.0938 C-5.7909 45.0686 -6.6755 45.0435 -7.5869 45.0176 C-14.3575 44.7255 -21.0078 43.7452 -26.4961 39.5234 C-30.2512 34.4165 -30.3962 29.6397 -30.3711 23.5234 C-30.3872 22.7461 -30.4033 21.9688 -30.4199 21.168 C-30.4252 14.8882 -29.1287 10.3794 -25.4961 5.1484 C-18.0499 -0.1975 -8.805 -0.0461 0 0 Z " fill="#F5F2E9" transform="translate(160.05859375,760.6015625)"/>
<path d="M0 0 C31.02 0 62.04 0 94 0 C94 5.94 94 11.88 94 18 C82.78 18 71.56 18 60 18 C60 35.82 60 53.64 60 72 C51.75 72 43.5 72 35 72 C34.67 54.51 34.34 37.02 34 19 C22.78 18.67 11.56 18.34 0 18 C0 12.06 0 6.12 0 0 Z " fill="#F5F2E9" transform="translate(30,762)"/>
<path d="M0 0 C7.92 0 15.84 0 24 0 C24.049 3.1904 24.098 6.3809 24.1484 9.668 C24.2025 12.7625 24.2598 15.857 24.3174 18.9514 C24.3556 21.0998 24.3905 23.2482 24.4219 25.3967 C24.4676 28.4874 24.5256 31.5776 24.5859 34.668 C24.5975 35.6265 24.609 36.585 24.6209 37.5726 C24.8476 47.8476 24.8476 47.8476 29 52 C33.0277 53.3109 37.114 53.1801 41.3086 53.2031 C41.7105 53.206 41.7105 53.206 43.7442 53.2204 C45.4412 53.2298 47.1382 53.2364 48.8352 53.2402 C51.425 53.25 54.0139 53.281 56.6035 53.3125 C58.2552 53.319 59.9069 53.3243 61.5586 53.3281 C61.9441 53.3343 61.9441 53.3343 63.8949 53.3655 C68.4188 53.3469 71.5987 53.1087 75 50 C77.3418 44.4362 77.3378 38.8837 77.4141 32.9102 C77.4334 31.9656 77.4528 31.0211 77.4727 30.048 C77.5322 27.0529 77.5788 24.0578 77.625 21.0625 C77.6632 19.0228 77.7023 16.9831 77.7422 14.9434 C77.8394 9.9623 77.9193 4.9814 78 0 C85.92 0 93.84 0 102 0 C102.0232 5.4037 102.043 10.8072 102.0549 16.2109 C102.0599 18.0417 102.0667 19.8724 102.0754 21.7031 C102.2503 59.2225 102.2503 59.2225 96.457 65.7344 C87.9216 73.6481 77.0843 73.1568 66.1094 73.168 C65.5392 73.1696 65.5392 73.1696 62.6536 73.1781 C60.2465 73.1831 57.8393 73.1855 55.4321 73.1853 C51.7762 73.1875 48.1207 73.2056 44.4648 73.2246 C42.1172 73.2275 39.7695 73.2295 37.4219 73.2305 C36.3413 73.2377 35.2607 73.2448 34.1474 73.2522 C24.9034 73.2248 13.6015 73.027 6 67 C-3.0208 55.0659 -0.2417 36.2755 -0.125 22.0625 C-0.1149 19.9147 -0.1058 17.7669 -0.0977 15.6191 C-0.0776 10.4126 -0.0384 5.2066 0 0 Z " fill="#F5F2E9" transform="translate(232,762)"/>
<path d="M0 0 C14.19 0 28.38 0 43 0 C45.145 2.805 45.145 2.805 56 17 C57.4463 18.8898 58.8927 20.7795 60.3828 22.7266 C61.6306 24.3591 62.878 25.9919 64.125 27.625 C64.791 28.4967 65.4569 29.3685 66.1431 30.2666 C70.7614 36.3287 75.3037 42.4409 79.7271 48.647 C82.7869 52.8934 82.7869 52.8934 85 54 C85 36.18 85 18.36 85 0 C92.92 0 100.84 0 109 0 C109 23.76 109 47.52 109 72 C95.14 72 81.28 72 67 72 C61.4296 65.1917 55.9766 58.4294 50.75 51.375 C49.4577 49.6414 48.1647 47.9084 46.8711 46.1758 C46.229 45.3155 45.5869 44.4552 44.9253 43.5688 C41.9119 39.5482 38.866 35.5528 35.8125 31.5625 C35.2843 30.8714 34.7561 30.1803 34.2119 29.4683 C32.8127 27.6418 31.4075 25.8201 30 24 C29.6307 23.5198 29.6307 23.5198 27.7617 21.0898 C26 19 26 19 24 18 C24 35.82 24 53.64 24 72 C16.08 72 8.16 72 0 72 C0 48.24 0 24.48 0 0 Z " fill="#F5F2E9" transform="translate(344,762)"/>
<path d="M0 0 C12.54 0 25.08 0 38 0 C46.9923 14.6125 46.9923 14.6125 49.8242 19.8047 C50.1393 20.3796 50.1393 20.3796 51.7336 23.2891 C52.0527 23.8746 52.3717 24.4602 52.7003 25.0635 C54.4152 28.2104 56.1417 31.351 57.8672 34.4922 C58.2131 35.1225 58.5591 35.7529 58.9155 36.4023 C62.336 42.6271 65.8143 48.8185 69.3125 55 C69.8451 55.9421 70.3777 56.8843 70.9265 57.855 C72.8606 61.2671 74.7921 64.6639 76.8555 68 C78 70 78 70 78 72 C69.09 72 60.18 72 51 72 C45 62 45 62 45 60 C27.84 60 10.68 60 -7 60 C-7.66 61.65 -8.32 63.3 -9 65 C-10.32 67.31 -11.64 69.62 -13 72 C-22.24 72 -31.48 72 -41 72 C-35.824 62.062 -30.3333 52.3697 -24.6504 42.7134 C-19.2659 33.5314 -14.0922 24.2415 -8.9744 14.9092 C-8.3821 13.8331 -7.7899 12.7571 -7.1797 11.6484 C-6.9205 11.1749 -6.9205 11.1749 -5.6089 8.7788 C-3.8689 5.7736 -1.9262 2.8893 0 0 Z M16 17 C14.0035 20.6831 12.0098 24.3676 10.0186 28.0535 C9.3403 29.3081 8.6612 30.5623 7.9814 31.8162 C7.0065 33.6147 6.0342 35.4146 5.0625 37.2148 C4.476 38.2989 3.8895 39.3829 3.2852 40.4998 C2 43 2 43 2 44 C13.22 44 24.44 44 36 44 C31.4903 34.9028 26.9575 25.8635 22 17 C20.02 17 18.04 17 16 17 Z " fill="#F5F2E9" transform="translate(499,762)"/>
<path d="M0 0 C14.52 0 29.04 0 44 0 C46.8336 5.7641 49.6648 11.5292 52.49 17.2974 C53.4518 19.2593 54.415 21.2206 55.3796 23.1812 C56.7658 25.9992 58.1471 28.8197 59.5273 31.6406 C59.7435 32.0787 59.7435 32.0787 60.8374 34.2957 C61.0376 34.706 61.0376 34.706 62.0505 36.7822 C62.4036 37.5017 62.7567 38.2212 63.1205 38.9625 C63.9832 40.9612 64.5375 42.8764 65 45 C65.66 45 66.32 45 67 45 C67.241 44.1928 67.4819 43.3856 67.7302 42.554 C69.2754 38.2293 71.2502 34.2322 73.3164 30.1367 C73.7329 29.3041 74.1495 28.4715 74.5786 27.6137 C75.455 25.8638 76.3334 24.1149 77.2136 22.3669 C78.5657 19.6812 79.9112 16.9922 81.2559 14.3027 C82.109 12.6014 82.9625 10.9002 83.8164 9.1992 C84.2206 8.392 84.6247 7.5848 85.0412 6.7531 C87.8839 1.1161 87.8839 1.1161 89 0 C90.3509 -0.0927 91.7067 -0.1175 93.0608 -0.1135 C93.9337 -0.1134 94.8066 -0.1133 95.7059 -0.1132 C96.1676 -0.1106 96.1676 -0.1106 98.5039 -0.0977 C99.3482 -0.0966 100.1925 -0.0956 101.0624 -0.0946 C104.2291 -0.0894 107.3958 -0.0754 110.5625 -0.0625 C117.6369 -0.0419 124.7113 -0.0213 132 0 C132 23.76 132 47.52 132 72 C124.41 72 116.82 72 109 72 C109 54.18 109 36.36 109 18 C107.68 18 106.36 18 105 18 C104.7285 18.8766 104.457 19.7531 104.1772 20.6562 C103.0652 23.8148 101.7626 26.5637 100.1641 29.5 C99.5996 30.5424 99.0352 31.5847 98.4536 32.6587 C98.1519 33.21 98.1519 33.21 96.625 36 C96.0074 37.1374 95.3898 38.2749 94.7534 39.4468 C93.4746 41.8001 92.1941 44.1524 90.9102 46.5029 C89.0724 49.8675 87.2388 53.2342 85.4062 56.6016 C82.6097 61.7374 79.8067 66.8697 77 72 C70.07 72 63.14 72 56 72 C51.5978 64.8211 47.532 57.5169 43.5916 50.0754 C38.6326 40.7105 33.6302 31.3894 28.2227 22.2734 C27 20 27 20 27 18 C25.68 18 24.36 18 23 18 C23 35.82 23 53.64 23 72 C15.41 72 7.82 72 0 72 C0 48.24 0 24.48 0 0 Z " fill="#F5F2E9" transform="translate(581,762)"/>
<path d="M0 0 C8.25 0 16.5 0 25 0 C25 23.76 25 47.52 25 72 C16.75 72 8.5 72 0 72 C0 48.24 0 24.48 0 0 Z " fill="#F5F2E9" transform="translate(724,762)"/>
</svg>
